<svg xmlns="http://www.w3.org/2000/svg" width="22.534" height="22.534" viewBox="0 0 22.534 22.534">
  <g id="bp4" transform="translate(-37.182 -366.723)">
    <g id="Intersection_3" data-name="Intersection 3" transform="translate(-797.5 -769)" fill="#fff">
      <path d="M 845.9606323242188 1154.470581054688 C 845.7901611328125 1154.399291992188 845.3734130859375 1153.911499023438 845.1410522460938 1152.63330078125 L 844.934814453125 1151.498779296875 L 844.9074096679688 1151.535766601563 C 844.8976440429688 1151.35546875 844.8926391601563 1151.173095703125 844.8926391601563 1150.990234375 C 844.8926391601563 1150.404296875 844.9439697265625 1149.826538085938 845.0401000976563 1149.307983398438 C 845.34228515625 1149.433959960938 845.6685180664063 1149.500366210938 846 1149.500366210938 C 846.2984619140625 1149.500366210938 846.5887451171875 1149.44873046875 846.8617553710938 1149.348388671875 C 846.9314575195313 1149.738403320313 846.9761352539063 1150.161499023438 846.9928588867188 1150.594116210938 L 846.9673461914063 1150.561157226563 L 846.858154296875 1151.837768554688 C 846.7159423828125 1153.5 846.2314453125 1154.332275390625 845.9606323242188 1154.470581054688 Z M 849.9996337890625 1147.999877929688 C 849.426513671875 1147.999877929688 848.8592529296875 1147.95068359375 848.3493041992188 1147.858520507813 C 848.4486083984375 1147.586669921875 848.4998168945313 1147.297607421875 848.4998168945313 1147.00048828125 C 848.4998168945313 1146.692260742188 848.44482421875 1146.393310546875 848.3380737304688 1146.113159179688 C 848.8201293945313 1146.03173828125 849.3470458984375 1145.989379882813 849.8925170898438 1145.989379882813 C 850.097412109375 1145.989379882813 850.301513671875 1145.995483398438 850.5026245117188 1146.007690429688 L 850.848388671875 1146.036376953125 C 850.8861083984375 1146.03955078125 850.9234619140625 1146.04296875 850.9606323242188 1146.046630859375 C 852.6930541992188 1146.236938476563 853.3930053710938 1146.791381835938 853.3930053710938 1146.990600585938 C 853.3930053710938 1147.12451171875 852.9383544921875 1147.595458984375 851.5463256835938 1147.8486328125 L 850.9735717773438 1147.952758789063 C 850.6585693359375 1147.984130859375 850.3328247070313 1147.999877929688 849.9996337890625 1147.999877929688 Z M 842.0049438476563 1147.999877929688 C 841.9183959960938 1147.999877929688 841.8319091796875 1147.998779296875 841.7457885742188 1147.99658203125 L 841.1528930664063 1147.945922851563 C 839.3276977539063 1147.789916992188 838.5772705078125 1147.244384765625 838.5050659179688 1147.010131835938 C 838.504638671875 1147.006713867188 838.50439453125 1147.003540039063 838.50439453125 1147.00048828125 C 838.50439453125 1146.861083984375 838.9423828125 1146.398315429688 840.3524780273438 1146.140502929688 L 840.89111328125 1146.0419921875 C 841.24755859375 1146.001098632813 841.6187744140625 1145.98046875 842.0004272460938 1145.98046875 C 842.5755615234375 1145.98046875 843.1451416015625 1146.030151367188 843.65771484375 1146.123168945313 C 843.5537719726563 1146.400634765625 843.500244140625 1146.696166992188 843.500244140625 1147.00048828125 C 843.500244140625 1147.29833984375 843.5519409179688 1147.588256835938 843.6522216796875 1147.860961914063 C 843.1473388671875 1147.952392578125 842.5885620117188 1147.999877929688 842.0049438476563 1147.999877929688 Z M 846.8623046875 1144.6533203125 C 846.5890502929688 1144.552612304688 846.298583984375 1144.500732421875 846 1144.500732421875 C 845.7030639648438 1144.500732421875 845.4139404296875 1144.552001953125 845.1417846679688 1144.651489257813 C 845.0491943359375 1144.140380859375 844.9996948242188 1143.572998046875 844.9996948242188 1143.0009765625 C 844.9996948242188 1142.807495117188 845.0051879882813 1142.6142578125 845.01611328125 1142.423583984375 L 845.0393676757813 1142.153198242188 C 845.0919189453125 1141.5341796875 845.2008666992188 1140.962524414063 845.3544311523438 1140.499877929688 C 845.4815063476563 1140.119750976563 845.6398315429688 1139.812866210938 845.7998657226563 1139.636962890625 C 845.8775024414063 1139.552001953125 845.9542236328125 1139.500610351563 846.0042724609375 1139.50048828125 C 846.1343994140625 1139.501098632813 846.6061401367188 1139.956787109375 846.8589477539063 1141.347045898438 L 846.9037475585938 1141.59326171875 C 846.9708862304688 1142.0390625 847.0048217773438 1142.511474609375 847.0048217773438 1143.0009765625 C 847.0048217773438 1143.573486328125 846.9551391601563 1144.141479492188 846.8623046875 1144.6533203125 Z" stroke="none"/>
      <path d="M 845.951171875 1153.63916015625 C 846.1105346679688 1153.272583007813 846.2858276367188 1152.661987304688 846.3599853515625 1151.795166015625 L 846.4812622070313 1150.377685546875 C 846.472412109375 1150.238891601563 846.4605712890625 1150.10205078125 846.44580078125 1149.9677734375 C 846.2994995117188 1149.989379882813 846.1505737304688 1150.000366210938 846 1150.000366210938 C 845.8145751953125 1150.000366210938 845.6305541992188 1149.983032226563 845.4501342773438 1149.949340820313 C 845.412353515625 1150.28369140625 845.3926391601563 1150.635009765625 845.3926391601563 1150.990234375 C 845.3926391601563 1151.073486328125 845.3937377929688 1151.15673828125 845.3958740234375 1151.239501953125 L 845.6329956054688 1152.5439453125 C 845.72412109375 1153.04541015625 845.8435668945313 1153.400756835938 845.951171875 1153.63916015625 M 849.9996337890625 1147.499877929688 C 850.309326171875 1147.499877929688 850.6117553710938 1147.485595703125 850.9041137695313 1147.457275390625 L 851.4569091796875 1147.356689453125 C 852.035888671875 1147.25146484375 852.42041015625 1147.1083984375 852.65478515625 1146.989501953125 C 852.3330078125 1146.829833984375 851.7550048828125 1146.63720703125 850.9093627929688 1146.5439453125 C 850.87548828125 1146.540649414063 850.8414306640625 1146.537475585938 850.80712890625 1146.53466796875 L 850.4668579101563 1146.506469726563 C 850.277587890625 1146.4951171875 850.08544921875 1146.489379882813 849.8925170898438 1146.489379882813 C 849.5732421875 1146.489379882813 849.261474609375 1146.504516601563 848.962890625 1146.534057617188 C 848.9873046875 1146.687866210938 848.9998168945313 1146.843872070313 848.9998168945313 1147.00048828125 C 848.9998168945313 1147.150146484375 848.989013671875 1147.298095703125 848.9676513671875 1147.443481445313 C 849.2996215820313 1147.48046875 849.6480102539063 1147.499877929688 849.9996337890625 1147.499877929688 M 842.0049438476563 1147.499877929688 C 842.3607177734375 1147.499877929688 842.7057495117188 1147.4814453125 843.0328369140625 1147.445556640625 C 843.01123046875 1147.299438476563 843.000244140625 1147.15087890625 843.000244140625 1147.00048828125 C 843.000244140625 1146.843872070313 843.0120849609375 1146.689208984375 843.035400390625 1146.537353515625 C 842.7022705078125 1146.5 842.3529052734375 1146.48046875 842.0004272460938 1146.48046875 C 841.6468505859375 1146.48046875 841.2942504882813 1146.500122070313 840.9584350585938 1146.537963867188 L 840.4423828125 1146.63232421875 C 839.8671875 1146.737548828125 839.4849243164063 1146.876586914063 839.2506103515625 1146.992309570313 C 839.6007690429688 1147.162841796875 840.2435302734375 1147.366333007813 841.1954956054688 1147.44775390625 L 841.7733764648438 1147.4970703125 C 841.850341796875 1147.498901367188 841.9275512695313 1147.499877929688 842.0049438476563 1147.499877929688 M 846.4478149414063 1144.033813476563 C 846.4852905273438 1143.701049804688 846.5048217773438 1143.352294921875 846.5048217773438 1143.0009765625 C 846.5048217773438 1142.5390625 846.47314453125 1142.094360351563 846.4104614257813 1141.675415039063 L 846.3670043945313 1141.4365234375 C 846.2617797851563 1140.857543945313 846.1188354492188 1140.473266601563 845.9998779296875 1140.239013671875 C 845.9476318359375 1140.342041015625 845.888671875 1140.478881835938 845.8289794921875 1140.657470703125 C 845.6876220703125 1141.083251953125 845.5868530273438 1141.615112304688 845.5375366210938 1142.195556640625 L 845.5137939453125 1142.478637695313 C 845.50439453125 1142.651245117188 845.4996948242188 1142.825927734375 845.4996948242188 1143.0009765625 C 845.4996948242188 1143.352172851563 845.5191650390625 1143.700561523438 845.5565185546875 1144.033081054688 C 845.7021484375 1144.011596679688 845.8502807617188 1144.000732421875 846 1144.000732421875 C 846.1513061523438 1144.000732421875 846.3008422851563 1144.011840820313 846.4478149414063 1144.033813476563 M 846 1154.97998046875 C 845.4285278320313 1154.97998046875 844.8984375 1154.094360351563 844.6491088867188 1152.722778320313 C 844.6203002929688 1152.761596679688 844.5914306640625 1152.7998046875 844.5624389648438 1152.837524414063 C 844.4539794921875 1152.28466796875 844.3926391601563 1151.656127929688 844.3926391601563 1150.990234375 C 844.3926391601563 1150.09521484375 844.506103515625 1149.226806640625 844.7107543945313 1148.527954101563 C 845.0591430664063 1148.822509765625 845.50927734375 1149.000366210938 846 1149.000366210938 C 846.4382934570313 1149.000366210938 846.8550415039063 1148.86083984375 847.2042236328125 1148.59716796875 L 847.2042236328125 1148.595336914063 C 847.1439208984375 1148.377563476563 847.0746459960938 1148.174072265625 846.9971923828125 1147.991455078125 C 847.1744995117188 1148.067016601563 847.3760986328125 1148.13720703125 847.6002197265625 1148.2001953125 C 847.4859008789063 1148.351440429688 847.3536376953125 1148.484619140625 847.2051391601563 1148.59619140625 L 847.2042236328125 1148.59716796875 C 847.3959350585938 1149.283813476563 847.5003051757813 1150.1298828125 847.5003051757813 1150.979370117188 C 847.5003051757813 1151.33203125 847.4830932617188 1151.674194335938 847.4508056640625 1152.000122070313 C 847.4192504882813 1151.960815429688 847.3876953125 1151.9208984375 847.3563232421875 1151.88037109375 C 847.2080688476563 1153.613159179688 846.6607055664063 1154.852416992188 846.0049438476563 1154.979858398438 C 846.0032958984375 1154.979858398438 846.0016479492188 1154.97998046875 846 1154.97998046875 Z M 849.9996337890625 1148.499877929688 C 849.14013671875 1148.499877929688 848.287841796875 1148.393676757813 847.6002197265625 1148.2001953125 C 847.8612060546875 1147.852783203125 847.9998168945313 1147.43798828125 847.9998168945313 1147.00048828125 C 847.9998168945313 1146.535766601563 847.84033203125 1146.107421875 847.5732421875 1145.767456054688 C 848.2454833984375 1145.5869140625 849.047119140625 1145.489379882813 849.8925170898438 1145.489379882813 C 850.2373046875 1145.489379882813 850.5718994140625 1145.505859375 850.891357421875 1145.536743164063 C 850.8908081054688 1145.537231445313 850.8902587890625 1145.53759765625 850.8897094726563 1145.5380859375 C 850.9309692382813 1145.54150390625 850.9718627929688 1145.545288085938 851.0125732421875 1145.54931640625 C 852.6749877929688 1145.7314453125 853.8930053710938 1146.308471679688 853.8930053710938 1146.990600585938 C 853.8930053710938 1147.561279296875 853.0065307617188 1148.09130859375 851.6358032226563 1148.340576171875 C 851.6461181640625 1148.348266601563 851.65625 1148.355834960938 851.66650390625 1148.363525390625 C 851.1587524414063 1148.451049804688 850.5941772460938 1148.499877929688 849.9996337890625 1148.499877929688 Z M 842.0049438476563 1148.499877929688 C 841.6900024414063 1148.499877929688 841.3836059570313 1148.486206054688 841.0894775390625 1148.460327148438 C 841.096435546875 1148.454956054688 841.1033325195313 1148.449584960938 841.1102905273438 1148.444091796875 C 839.4039916992188 1148.298217773438 838.1773681640625 1147.764892578125 838.0176391601563 1147.122802734375 C 838.0089111328125 1147.082397460938 838.00439453125 1147.041748046875 838.00439453125 1147.00048828125 C 838.00439453125 1146.4208984375 838.8693237304688 1145.903442382813 840.2625122070313 1145.648681640625 C 840.255615234375 1145.6435546875 840.2487182617188 1145.638427734375 840.2418823242188 1145.63330078125 C 840.7728881835938 1145.535522460938 841.3699340820313 1145.48046875 842.0004272460938 1145.48046875 C 842.8652954101563 1145.48046875 843.7221069335938 1145.58837890625 844.4124145507813 1145.78369140625 C 844.143310546875 1146.134765625 844.000244140625 1146.555053710938 844.000244140625 1147.00048828125 C 844.000244140625 1147.450927734375 844.1499633789063 1147.866943359375 844.4022216796875 1148.20166015625 C 843.7147827148438 1148.395874023438 842.8831176757813 1148.499877929688 842.0049438476563 1148.499877929688 Z M 846.9971923828125 1147.991455078125 L 846.9945068359375 1147.990478515625 C 846.5795288085938 1147.8134765625 846.2785034179688 1147.600219726563 846.124267578125 1147.372680664063 C 846.2359008789063 1147.262451171875 846.3131713867188 1147.100952148438 846.3546142578125 1146.889770507813 C 846.3641357421875 1146.8837890625 846.3735961914063 1146.87744140625 846.383056640625 1146.870971679688 C 846.41455078125 1146.904296875 846.4417114257813 1146.940551757813 846.4644165039063 1146.979858398438 C 846.5103149414063 1147.060791015625 846.5372924804688 1147.152587890625 846.5436401367188 1147.251586914063 C 846.7109985351563 1147.42529296875 846.8630981445313 1147.673706054688 846.996337890625 1147.989624023438 L 846.9971923828125 1147.991455078125 Z M 845.5570678710938 1147.034545898438 C 845.549560546875 1147.0234375 845.5423583984375 1147.012084960938 845.53564453125 1147.00048828125 C 845.48974609375 1146.919555664063 845.4627075195313 1146.82861328125 845.4564208984375 1146.73046875 C 845.2881469726563 1146.555053710938 845.1360473632813 1146.305786132813 845.0028076171875 1145.988891601563 C 845.3907470703125 1146.154907226563 845.6781005859375 1146.350830078125 845.8406372070313 1146.5595703125 C 845.704833984375 1146.6591796875 845.609619140625 1146.818725585938 845.5570678710938 1147.034545898438 Z M 845.0028076171875 1145.988891601563 L 845.0001220703125 1145.988037109375 C 844.8246459960938 1145.913330078125 844.6266479492188 1145.844970703125 844.4124145507813 1145.78369140625 C 844.52490234375 1145.637939453125 844.6553955078125 1145.50927734375 844.80029296875 1145.400268554688 C 844.8588256835938 1145.609985351563 844.9263305664063 1145.80712890625 845.0018920898438 1145.987182617188 L 845.0028076171875 1145.988891601563 Z M 847.2030639648438 1145.404174804688 C 846.8680419921875 1145.151000976563 846.4512329101563 1145.000732421875 846 1145.000732421875 C 845.5635375976563 1145.000732421875 845.1486206054688 1145.139282226563 844.80029296875 1145.400268554688 C 844.6058959960938 1144.709106445313 844.4996948242188 1143.856811523438 844.4996948242188 1143.0009765625 C 844.4996948242188 1142.693359375 844.5128173828125 1142.39404296875 844.5375366210938 1142.106201171875 C 844.5387573242188 1142.107788085938 844.5399169921875 1142.109252929688 844.5411376953125 1142.11083984375 C 844.5986938476563 1141.433471679688 844.7174072265625 1140.831909179688 844.8798828125 1140.342407226563 C 845.0302124023438 1139.892700195313 845.218017578125 1139.533569335938 845.4299926757813 1139.300537109375 C 845.6069946289063 1139.10693359375 845.800537109375 1139.001220703125 846.00244140625 1139.00048828125 C 846.5730590820313 1139.0029296875 847.1019897460938 1139.888793945313 847.3508911132813 1141.257568359375 C 847.3519287109375 1141.256225585938 847.3529663085938 1141.2548828125 847.35400390625 1141.253540039063 C 847.4505615234375 1141.78173828125 847.5048217773438 1142.374633789063 847.5048217773438 1143.0009765625 C 847.5048217773438 1143.871337890625 847.39697265625 1144.715942382813 847.2030639648438 1145.404174804688 Z" stroke="none" fill="#707070"/>
    </g>
    <g id="Intersection_4" data-name="Intersection 4" transform="translate(261.317 -1031.231) rotate(45)" fill="#fff">
      <path d="M 845.9606323242188 1154.470581054688 C 845.7901611328125 1154.399291992188 845.3734130859375 1153.911499023438 845.1410522460938 1152.63330078125 L 844.934814453125 1151.498779296875 L 844.9074096679688 1151.535766601563 C 844.8976440429688 1151.35546875 844.8926391601563 1151.173095703125 844.8926391601563 1150.990234375 C 844.8926391601563 1150.404296875 844.9439697265625 1149.826538085938 845.0401000976563 1149.307983398438 C 845.34228515625 1149.433959960938 845.6685180664063 1149.500366210938 846 1149.500366210938 C 846.2984619140625 1149.500366210938 846.5887451171875 1149.44873046875 846.8617553710938 1149.348388671875 C 846.9314575195313 1149.738403320313 846.9761352539063 1150.161499023438 846.9928588867188 1150.594116210938 L 846.9673461914063 1150.561157226563 L 846.858154296875 1151.837768554688 C 846.7159423828125 1153.5 846.2314453125 1154.332275390625 845.9606323242188 1154.470581054688 Z M 849.9996337890625 1147.999877929688 C 849.426513671875 1147.999877929688 848.8592529296875 1147.95068359375 848.3493041992188 1147.858520507813 C 848.4486083984375 1147.586669921875 848.4998168945313 1147.297607421875 848.4998168945313 1147.00048828125 C 848.4998168945313 1146.692260742188 848.44482421875 1146.393310546875 848.3380737304688 1146.113159179688 C 848.8201293945313 1146.03173828125 849.3470458984375 1145.989379882813 849.8925170898438 1145.989379882813 C 850.097412109375 1145.989379882813 850.301513671875 1145.995483398438 850.5026245117188 1146.007690429688 L 850.848388671875 1146.036376953125 C 850.8861083984375 1146.03955078125 850.9234619140625 1146.04296875 850.9606323242188 1146.046630859375 C 852.6930541992188 1146.236938476563 853.3930053710938 1146.791381835938 853.3930053710938 1146.990600585938 C 853.3930053710938 1147.12451171875 852.9383544921875 1147.595458984375 851.5463256835938 1147.8486328125 L 850.9735717773438 1147.952758789063 C 850.6585693359375 1147.984130859375 850.3328247070313 1147.999877929688 849.9996337890625 1147.999877929688 Z M 842.0049438476563 1147.999877929688 C 841.9183959960938 1147.999877929688 841.8319091796875 1147.998779296875 841.7457885742188 1147.99658203125 L 841.1528930664063 1147.945922851563 C 839.3276977539063 1147.789916992188 838.5772705078125 1147.244384765625 838.5050659179688 1147.010131835938 C 838.504638671875 1147.006713867188 838.50439453125 1147.003540039063 838.50439453125 1147.00048828125 C 838.50439453125 1146.861083984375 838.9423828125 1146.398315429688 840.3524780273438 1146.140502929688 L 840.89111328125 1146.0419921875 C 841.24755859375 1146.001098632813 841.6187744140625 1145.98046875 842.0004272460938 1145.98046875 C 842.5755615234375 1145.98046875 843.1451416015625 1146.030151367188 843.65771484375 1146.123168945313 C 843.5537719726563 1146.400634765625 843.500244140625 1146.696166992188 843.500244140625 1147.00048828125 C 843.500244140625 1147.29833984375 843.5519409179688 1147.588256835938 843.6522216796875 1147.860961914063 C 843.1473388671875 1147.952392578125 842.5885620117188 1147.999877929688 842.0049438476563 1147.999877929688 Z M 846.8623046875 1144.6533203125 C 846.5890502929688 1144.552612304688 846.298583984375 1144.500732421875 846 1144.500732421875 C 845.7030639648438 1144.500732421875 845.4139404296875 1144.552001953125 845.1417846679688 1144.651489257813 C 845.0491943359375 1144.140380859375 844.9996948242188 1143.572998046875 844.9996948242188 1143.0009765625 C 844.9996948242188 1142.807495117188 845.0051879882813 1142.6142578125 845.01611328125 1142.423583984375 L 845.0393676757813 1142.153198242188 C 845.0919189453125 1141.5341796875 845.2008666992188 1140.962524414063 845.3544311523438 1140.499877929688 C 845.4815063476563 1140.119750976563 845.6398315429688 1139.812866210938 845.7998657226563 1139.636962890625 C 845.8775024414063 1139.552001953125 845.9542236328125 1139.500610351563 846.0042724609375 1139.50048828125 C 846.1343994140625 1139.501098632813 846.6061401367188 1139.956787109375 846.8589477539063 1141.347045898438 L 846.9037475585938 1141.59326171875 C 846.9708862304688 1142.0390625 847.0048217773438 1142.511474609375 847.0048217773438 1143.0009765625 C 847.0048217773438 1143.573486328125 846.9551391601563 1144.141479492188 846.8623046875 1144.6533203125 Z" stroke="none"/>
      <path d="M 845.951171875 1153.63916015625 C 846.1105346679688 1153.272583007813 846.2858276367188 1152.661987304688 846.3599853515625 1151.795166015625 L 846.4812622070313 1150.377685546875 C 846.472412109375 1150.238891601563 846.4605712890625 1150.10205078125 846.44580078125 1149.9677734375 C 846.2994995117188 1149.989379882813 846.1505737304688 1150.000366210938 846 1150.000366210938 C 845.8145751953125 1150.000366210938 845.6305541992188 1149.983032226563 845.4501342773438 1149.949340820313 C 845.412353515625 1150.28369140625 845.3926391601563 1150.635009765625 845.3926391601563 1150.990234375 C 845.3926391601563 1151.073486328125 845.3937377929688 1151.15673828125 845.3958740234375 1151.239501953125 L 845.6329956054688 1152.5439453125 C 845.72412109375 1153.04541015625 845.8435668945313 1153.400756835938 845.951171875 1153.63916015625 M 849.9996337890625 1147.499877929688 C 850.309326171875 1147.499877929688 850.6117553710938 1147.485595703125 850.9041137695313 1147.457275390625 L 851.4569091796875 1147.356689453125 C 852.035888671875 1147.25146484375 852.42041015625 1147.1083984375 852.65478515625 1146.989501953125 C 852.3330078125 1146.829833984375 851.7550048828125 1146.63720703125 850.9093627929688 1146.5439453125 C 850.87548828125 1146.540649414063 850.8414306640625 1146.537475585938 850.80712890625 1146.53466796875 L 850.4668579101563 1146.506469726563 C 850.277587890625 1146.4951171875 850.08544921875 1146.489379882813 849.8925170898438 1146.489379882813 C 849.5732421875 1146.489379882813 849.261474609375 1146.504516601563 848.962890625 1146.534057617188 C 848.9873046875 1146.687866210938 848.9998168945313 1146.843872070313 848.9998168945313 1147.00048828125 C 848.9998168945313 1147.150146484375 848.989013671875 1147.298095703125 848.9676513671875 1147.443481445313 C 849.2996215820313 1147.48046875 849.6480102539063 1147.499877929688 849.9996337890625 1147.499877929688 M 842.0049438476563 1147.499877929688 C 842.3607177734375 1147.499877929688 842.7057495117188 1147.4814453125 843.0328369140625 1147.445556640625 C 843.01123046875 1147.299438476563 843.000244140625 1147.15087890625 843.000244140625 1147.00048828125 C 843.000244140625 1146.843872070313 843.0120849609375 1146.689208984375 843.035400390625 1146.537353515625 C 842.7022705078125 1146.5 842.3529052734375 1146.48046875 842.0004272460938 1146.48046875 C 841.6468505859375 1146.48046875 841.2942504882813 1146.500122070313 840.9584350585938 1146.537963867188 L 840.4423828125 1146.63232421875 C 839.8671875 1146.737548828125 839.4849243164063 1146.876586914063 839.2506103515625 1146.992309570313 C 839.6007690429688 1147.162841796875 840.2435302734375 1147.366333007813 841.1954956054688 1147.44775390625 L 841.7733764648438 1147.4970703125 C 841.850341796875 1147.498901367188 841.9275512695313 1147.499877929688 842.0049438476563 1147.499877929688 M 846.4478149414063 1144.033813476563 C 846.4852905273438 1143.701049804688 846.5048217773438 1143.352294921875 846.5048217773438 1143.0009765625 C 846.5048217773438 1142.5390625 846.47314453125 1142.094360351563 846.4104614257813 1141.675415039063 L 846.3670043945313 1141.4365234375 C 846.2617797851563 1140.857543945313 846.1188354492188 1140.473266601563 845.9998779296875 1140.239013671875 C 845.9476318359375 1140.342041015625 845.888671875 1140.478881835938 845.8289794921875 1140.657470703125 C 845.6876220703125 1141.083251953125 845.5868530273438 1141.615112304688 845.5375366210938 1142.195556640625 L 845.5137939453125 1142.478637695313 C 845.50439453125 1142.651245117188 845.4996948242188 1142.825927734375 845.4996948242188 1143.0009765625 C 845.4996948242188 1143.352172851563 845.5191650390625 1143.700561523438 845.5565185546875 1144.033081054688 C 845.7021484375 1144.011596679688 845.8502807617188 1144.000732421875 846 1144.000732421875 C 846.1513061523438 1144.000732421875 846.3008422851563 1144.011840820313 846.4478149414063 1144.033813476563 M 846 1154.97998046875 C 845.4285278320313 1154.97998046875 844.8984375 1154.094360351563 844.6491088867188 1152.722778320313 C 844.6203002929688 1152.761596679688 844.5914306640625 1152.7998046875 844.5624389648438 1152.837524414063 C 844.4539794921875 1152.28466796875 844.3926391601563 1151.656127929688 844.3926391601563 1150.990234375 C 844.3926391601563 1150.09521484375 844.506103515625 1149.226806640625 844.7107543945313 1148.527954101563 C 845.0591430664063 1148.822509765625 845.50927734375 1149.000366210938 846 1149.000366210938 C 846.4382934570313 1149.000366210938 846.8550415039063 1148.86083984375 847.2042236328125 1148.59716796875 L 847.2042236328125 1148.595336914063 C 847.1439208984375 1148.377563476563 847.0746459960938 1148.174072265625 846.9971923828125 1147.991455078125 C 847.1744995117188 1148.067016601563 847.3760986328125 1148.13720703125 847.6002197265625 1148.2001953125 C 847.4859008789063 1148.351440429688 847.3536376953125 1148.484619140625 847.2051391601563 1148.59619140625 L 847.2042236328125 1148.59716796875 C 847.3959350585938 1149.283813476563 847.5003051757813 1150.1298828125 847.5003051757813 1150.979370117188 C 847.5003051757813 1151.33203125 847.4830932617188 1151.674194335938 847.4508056640625 1152.000122070313 C 847.4192504882813 1151.960815429688 847.3876953125 1151.9208984375 847.3563232421875 1151.88037109375 C 847.2080688476563 1153.613159179688 846.6607055664063 1154.852416992188 846.0049438476563 1154.979858398438 C 846.0032958984375 1154.979858398438 846.0016479492188 1154.97998046875 846 1154.97998046875 Z M 849.9996337890625 1148.499877929688 C 849.14013671875 1148.499877929688 848.287841796875 1148.393676757813 847.6002197265625 1148.2001953125 C 847.8612060546875 1147.852783203125 847.9998168945313 1147.43798828125 847.9998168945313 1147.00048828125 C 847.9998168945313 1146.535766601563 847.84033203125 1146.107421875 847.5732421875 1145.767456054688 C 848.2454833984375 1145.5869140625 849.047119140625 1145.489379882813 849.8925170898438 1145.489379882813 C 850.2373046875 1145.489379882813 850.5718994140625 1145.505859375 850.891357421875 1145.536743164063 C 850.8908081054688 1145.537231445313 850.8902587890625 1145.53759765625 850.8897094726563 1145.5380859375 C 850.9309692382813 1145.54150390625 850.9718627929688 1145.545288085938 851.0125732421875 1145.54931640625 C 852.6749877929688 1145.7314453125 853.8930053710938 1146.308471679688 853.8930053710938 1146.990600585938 C 853.8930053710938 1147.561279296875 853.0065307617188 1148.09130859375 851.6358032226563 1148.340576171875 C 851.6461181640625 1148.348266601563 851.65625 1148.355834960938 851.66650390625 1148.363525390625 C 851.1587524414063 1148.451049804688 850.5941772460938 1148.499877929688 849.9996337890625 1148.499877929688 Z M 842.0049438476563 1148.499877929688 C 841.6900024414063 1148.499877929688 841.3836059570313 1148.486206054688 841.0894775390625 1148.460327148438 C 841.096435546875 1148.454956054688 841.1033325195313 1148.449584960938 841.1102905273438 1148.444091796875 C 839.4039916992188 1148.298217773438 838.1773681640625 1147.764892578125 838.0176391601563 1147.122802734375 C 838.0089111328125 1147.082397460938 838.00439453125 1147.041748046875 838.00439453125 1147.00048828125 C 838.00439453125 1146.4208984375 838.8693237304688 1145.903442382813 840.2625122070313 1145.648681640625 C 840.255615234375 1145.6435546875 840.2487182617188 1145.638427734375 840.2418823242188 1145.63330078125 C 840.7728881835938 1145.535522460938 841.3699340820313 1145.48046875 842.0004272460938 1145.48046875 C 842.8652954101563 1145.48046875 843.7221069335938 1145.58837890625 844.4124145507813 1145.78369140625 C 844.143310546875 1146.134765625 844.000244140625 1146.555053710938 844.000244140625 1147.00048828125 C 844.000244140625 1147.450927734375 844.1499633789063 1147.866943359375 844.4022216796875 1148.20166015625 C 843.7147827148438 1148.395874023438 842.8831176757813 1148.499877929688 842.0049438476563 1148.499877929688 Z M 846.9971923828125 1147.991455078125 L 846.9945068359375 1147.990478515625 C 846.5795288085938 1147.8134765625 846.2785034179688 1147.600219726563 846.124267578125 1147.372680664063 C 846.2359008789063 1147.262451171875 846.3131713867188 1147.100952148438 846.3546142578125 1146.889770507813 C 846.3641357421875 1146.8837890625 846.3735961914063 1146.87744140625 846.383056640625 1146.870971679688 C 846.41455078125 1146.904296875 846.4417114257813 1146.940551757813 846.4644165039063 1146.979858398438 C 846.5103149414063 1147.060791015625 846.5372924804688 1147.152587890625 846.5436401367188 1147.251586914063 C 846.7109985351563 1147.42529296875 846.8630981445313 1147.673706054688 846.996337890625 1147.989624023438 L 846.9971923828125 1147.991455078125 Z M 845.5570678710938 1147.034545898438 C 845.549560546875 1147.0234375 845.5423583984375 1147.012084960938 845.53564453125 1147.00048828125 C 845.48974609375 1146.919555664063 845.4627075195313 1146.82861328125 845.4564208984375 1146.73046875 C 845.2881469726563 1146.555053710938 845.1360473632813 1146.305786132813 845.0028076171875 1145.988891601563 C 845.3907470703125 1146.154907226563 845.6781005859375 1146.350830078125 845.8406372070313 1146.5595703125 C 845.704833984375 1146.6591796875 845.609619140625 1146.818725585938 845.5570678710938 1147.034545898438 Z M 845.0028076171875 1145.988891601563 L 845.0001220703125 1145.988037109375 C 844.8246459960938 1145.913330078125 844.6266479492188 1145.844970703125 844.4124145507813 1145.78369140625 C 844.52490234375 1145.637939453125 844.6553955078125 1145.50927734375 844.80029296875 1145.400268554688 C 844.8588256835938 1145.609985351563 844.9263305664063 1145.80712890625 845.0018920898438 1145.987182617188 L 845.0028076171875 1145.988891601563 Z M 847.2030639648438 1145.404174804688 C 846.8680419921875 1145.151000976563 846.4512329101563 1145.000732421875 846 1145.000732421875 C 845.5635375976563 1145.000732421875 845.1486206054688 1145.139282226563 844.80029296875 1145.400268554688 C 844.6058959960938 1144.709106445313 844.4996948242188 1143.856811523438 844.4996948242188 1143.0009765625 C 844.4996948242188 1142.693359375 844.5128173828125 1142.39404296875 844.5375366210938 1142.106201171875 C 844.5387573242188 1142.107788085938 844.5399169921875 1142.109252929688 844.5411376953125 1142.11083984375 C 844.5986938476563 1141.433471679688 844.7174072265625 1140.831909179688 844.8798828125 1140.342407226563 C 845.0302124023438 1139.892700195313 845.218017578125 1139.533569335938 845.4299926757813 1139.300537109375 C 845.6069946289063 1139.10693359375 845.800537109375 1139.001220703125 846.00244140625 1139.00048828125 C 846.5730590820313 1139.0029296875 847.1019897460938 1139.888793945313 847.3508911132813 1141.257568359375 C 847.3519287109375 1141.256225585938 847.3529663085938 1141.2548828125 847.35400390625 1141.253540039063 C 847.4505615234375 1141.78173828125 847.5048217773438 1142.374633789063 847.5048217773438 1143.0009765625 C 847.5048217773438 1143.871337890625 847.39697265625 1144.715942382813 847.2030639648438 1145.404174804688 Z" stroke="none" fill="#707070"/>
    </g>
    <g id="Intersection_5" data-name="Intersection 5" transform="translate(1195.439 -467.959) rotate(90)" fill="#fff">
      <path d="M 845.9606323242188 1154.470581054688 C 845.7901611328125 1154.399291992188 845.3734130859375 1153.911499023438 845.1410522460938 1152.63330078125 L 844.934814453125 1151.498779296875 L 844.9074096679688 1151.535766601563 C 844.8976440429688 1151.35546875 844.8926391601563 1151.173095703125 844.8926391601563 1150.990234375 C 844.8926391601563 1150.404296875 844.9439697265625 1149.826538085938 845.0401000976563 1149.307983398438 C 845.34228515625 1149.433959960938 845.6685180664063 1149.500366210938 846 1149.500366210938 C 846.2984619140625 1149.500366210938 846.5887451171875 1149.44873046875 846.8617553710938 1149.348388671875 C 846.9314575195313 1149.738403320313 846.9761352539063 1150.161499023438 846.9928588867188 1150.594116210938 L 846.9673461914063 1150.561157226563 L 846.858154296875 1151.837768554688 C 846.7159423828125 1153.5 846.2314453125 1154.332275390625 845.9606323242188 1154.470581054688 Z M 849.9996337890625 1147.999877929688 C 849.426513671875 1147.999877929688 848.8592529296875 1147.95068359375 848.3493041992188 1147.858520507813 C 848.4486083984375 1147.586669921875 848.4998168945313 1147.297607421875 848.4998168945313 1147.00048828125 C 848.4998168945313 1146.692260742188 848.44482421875 1146.393310546875 848.3380737304688 1146.113159179688 C 848.8201293945313 1146.03173828125 849.3470458984375 1145.989379882813 849.8925170898438 1145.989379882813 C 850.097412109375 1145.989379882813 850.301513671875 1145.995483398438 850.5026245117188 1146.007690429688 L 850.848388671875 1146.036376953125 C 850.8861083984375 1146.03955078125 850.9234619140625 1146.04296875 850.9606323242188 1146.046630859375 C 852.6930541992188 1146.236938476563 853.3930053710938 1146.791381835938 853.3930053710938 1146.990600585938 C 853.3930053710938 1147.12451171875 852.9383544921875 1147.595458984375 851.5463256835938 1147.8486328125 L 850.9735717773438 1147.952758789063 C 850.6585693359375 1147.984130859375 850.3328247070313 1147.999877929688 849.9996337890625 1147.999877929688 Z M 842.0049438476563 1147.999877929688 C 841.9183959960938 1147.999877929688 841.8319091796875 1147.998779296875 841.7457885742188 1147.99658203125 L 841.1528930664063 1147.945922851563 C 839.3276977539063 1147.789916992188 838.5772705078125 1147.244384765625 838.5050659179688 1147.010131835938 C 838.504638671875 1147.006713867188 838.50439453125 1147.003540039063 838.50439453125 1147.00048828125 C 838.50439453125 1146.861083984375 838.9423828125 1146.398315429688 840.3524780273438 1146.140502929688 L 840.89111328125 1146.0419921875 C 841.24755859375 1146.001098632813 841.6187744140625 1145.98046875 842.0004272460938 1145.98046875 C 842.5755615234375 1145.98046875 843.1451416015625 1146.030151367188 843.65771484375 1146.123168945313 C 843.5537719726563 1146.400634765625 843.500244140625 1146.696166992188 843.500244140625 1147.00048828125 C 843.500244140625 1147.29833984375 843.5519409179688 1147.588256835938 843.6522216796875 1147.860961914063 C 843.1473388671875 1147.952392578125 842.5885620117188 1147.999877929688 842.0049438476563 1147.999877929688 Z M 846.8623046875 1144.6533203125 C 846.5890502929688 1144.552612304688 846.298583984375 1144.500732421875 846 1144.500732421875 C 845.7030639648438 1144.500732421875 845.4139404296875 1144.552001953125 845.1417846679688 1144.651489257813 C 845.0491943359375 1144.140380859375 844.9996948242188 1143.572998046875 844.9996948242188 1143.0009765625 C 844.9996948242188 1142.807495117188 845.0051879882813 1142.6142578125 845.01611328125 1142.423583984375 L 845.0393676757813 1142.153198242188 C 845.0919189453125 1141.5341796875 845.2008666992188 1140.962524414063 845.3544311523438 1140.499877929688 C 845.4815063476563 1140.119750976563 845.6398315429688 1139.812866210938 845.7998657226563 1139.636962890625 C 845.8775024414063 1139.552001953125 845.9542236328125 1139.500610351563 846.0042724609375 1139.50048828125 C 846.1343994140625 1139.501098632813 846.6061401367188 1139.956787109375 846.8589477539063 1141.347045898438 L 846.9037475585938 1141.59326171875 C 846.9708862304688 1142.0390625 847.0048217773438 1142.511474609375 847.0048217773438 1143.0009765625 C 847.0048217773438 1143.573486328125 846.9551391601563 1144.141479492188 846.8623046875 1144.6533203125 Z" stroke="none"/>
      <path d="M 845.951171875 1153.63916015625 C 846.1105346679688 1153.272583007813 846.2858276367188 1152.661987304688 846.3599853515625 1151.795166015625 L 846.4812622070313 1150.377685546875 C 846.472412109375 1150.238891601563 846.4605712890625 1150.10205078125 846.44580078125 1149.9677734375 C 846.2994995117188 1149.989379882813 846.1505737304688 1150.000366210938 846 1150.000366210938 C 845.8145751953125 1150.000366210938 845.6305541992188 1149.983032226563 845.4501342773438 1149.949340820313 C 845.412353515625 1150.28369140625 845.3926391601563 1150.635009765625 845.3926391601563 1150.990234375 C 845.3926391601563 1151.073486328125 845.3937377929688 1151.15673828125 845.3958740234375 1151.239501953125 L 845.6329956054688 1152.5439453125 C 845.72412109375 1153.04541015625 845.8435668945313 1153.400756835938 845.951171875 1153.63916015625 M 849.9996337890625 1147.499877929688 C 850.309326171875 1147.499877929688 850.6117553710938 1147.485595703125 850.9041137695313 1147.457275390625 L 851.4569091796875 1147.356689453125 C 852.035888671875 1147.25146484375 852.42041015625 1147.1083984375 852.65478515625 1146.989501953125 C 852.3330078125 1146.829833984375 851.7550048828125 1146.63720703125 850.9093627929688 1146.5439453125 C 850.87548828125 1146.540649414063 850.8414306640625 1146.537475585938 850.80712890625 1146.53466796875 L 850.4668579101563 1146.506469726563 C 850.277587890625 1146.4951171875 850.08544921875 1146.489379882813 849.8925170898438 1146.489379882813 C 849.5732421875 1146.489379882813 849.261474609375 1146.504516601563 848.962890625 1146.534057617188 C 848.9873046875 1146.687866210938 848.9998168945313 1146.843872070313 848.9998168945313 1147.00048828125 C 848.9998168945313 1147.150146484375 848.989013671875 1147.298095703125 848.9676513671875 1147.443481445313 C 849.2996215820313 1147.48046875 849.6480102539063 1147.499877929688 849.9996337890625 1147.499877929688 M 842.0049438476563 1147.499877929688 C 842.3607177734375 1147.499877929688 842.7057495117188 1147.4814453125 843.0328369140625 1147.445556640625 C 843.01123046875 1147.299438476563 843.000244140625 1147.15087890625 843.000244140625 1147.00048828125 C 843.000244140625 1146.843872070313 843.0120849609375 1146.689208984375 843.035400390625 1146.537353515625 C 842.7022705078125 1146.5 842.3529052734375 1146.48046875 842.0004272460938 1146.48046875 C 841.6468505859375 1146.48046875 841.2942504882813 1146.500122070313 840.9584350585938 1146.537963867188 L 840.4423828125 1146.63232421875 C 839.8671875 1146.737548828125 839.4849243164063 1146.876586914063 839.2506103515625 1146.992309570313 C 839.6007690429688 1147.162841796875 840.2435302734375 1147.366333007813 841.1954956054688 1147.44775390625 L 841.7733764648438 1147.4970703125 C 841.850341796875 1147.498901367188 841.9275512695313 1147.499877929688 842.0049438476563 1147.499877929688 M 846.4478149414063 1144.033813476563 C 846.4852905273438 1143.701049804688 846.5048217773438 1143.352294921875 846.5048217773438 1143.0009765625 C 846.5048217773438 1142.5390625 846.47314453125 1142.094360351563 846.4104614257813 1141.675415039063 L 846.3670043945313 1141.4365234375 C 846.2617797851563 1140.857543945313 846.1188354492188 1140.473266601563 845.9998779296875 1140.239013671875 C 845.9476318359375 1140.342041015625 845.888671875 1140.478881835938 845.8289794921875 1140.657470703125 C 845.6876220703125 1141.083251953125 845.5868530273438 1141.615112304688 845.5375366210938 1142.195556640625 L 845.5137939453125 1142.478637695313 C 845.50439453125 1142.651245117188 845.4996948242188 1142.825927734375 845.4996948242188 1143.0009765625 C 845.4996948242188 1143.352172851563 845.5191650390625 1143.700561523438 845.5565185546875 1144.033081054688 C 845.7021484375 1144.011596679688 845.8502807617188 1144.000732421875 846 1144.000732421875 C 846.1513061523438 1144.000732421875 846.3008422851563 1144.011840820313 846.4478149414063 1144.033813476563 M 846 1154.97998046875 C 845.4285278320313 1154.97998046875 844.8984375 1154.094360351563 844.6491088867188 1152.722778320313 C 844.6203002929688 1152.761596679688 844.5914306640625 1152.7998046875 844.5624389648438 1152.837524414063 C 844.4539794921875 1152.28466796875 844.3926391601563 1151.656127929688 844.3926391601563 1150.990234375 C 844.3926391601563 1150.09521484375 844.506103515625 1149.226806640625 844.7107543945313 1148.527954101563 C 845.0591430664063 1148.822509765625 845.50927734375 1149.000366210938 846 1149.000366210938 C 846.4382934570313 1149.000366210938 846.8550415039063 1148.86083984375 847.2042236328125 1148.59716796875 L 847.2042236328125 1148.595336914063 C 847.1439208984375 1148.377563476563 847.0746459960938 1148.174072265625 846.9971923828125 1147.991455078125 C 847.1744995117188 1148.067016601563 847.3760986328125 1148.13720703125 847.6002197265625 1148.2001953125 C 847.4859008789063 1148.351440429688 847.3536376953125 1148.484619140625 847.2051391601563 1148.59619140625 L 847.2042236328125 1148.59716796875 C 847.3959350585938 1149.283813476563 847.5003051757813 1150.1298828125 847.5003051757813 1150.979370117188 C 847.5003051757813 1151.33203125 847.4830932617188 1151.674194335938 847.4508056640625 1152.000122070313 C 847.4192504882813 1151.960815429688 847.3876953125 1151.9208984375 847.3563232421875 1151.88037109375 C 847.2080688476563 1153.613159179688 846.6607055664063 1154.852416992188 846.0049438476563 1154.979858398438 C 846.0032958984375 1154.979858398438 846.0016479492188 1154.97998046875 846 1154.97998046875 Z M 849.9996337890625 1148.499877929688 C 849.14013671875 1148.499877929688 848.287841796875 1148.393676757813 847.6002197265625 1148.2001953125 C 847.8612060546875 1147.852783203125 847.9998168945313 1147.43798828125 847.9998168945313 1147.00048828125 C 847.9998168945313 1146.535766601563 847.84033203125 1146.107421875 847.5732421875 1145.767456054688 C 848.2454833984375 1145.5869140625 849.047119140625 1145.489379882813 849.8925170898438 1145.489379882813 C 850.2373046875 1145.489379882813 850.5718994140625 1145.505859375 850.891357421875 1145.536743164063 C 850.8908081054688 1145.537231445313 850.8902587890625 1145.53759765625 850.8897094726563 1145.5380859375 C 850.9309692382813 1145.54150390625 850.9718627929688 1145.545288085938 851.0125732421875 1145.54931640625 C 852.6749877929688 1145.7314453125 853.8930053710938 1146.308471679688 853.8930053710938 1146.990600585938 C 853.8930053710938 1147.561279296875 853.0065307617188 1148.09130859375 851.6358032226563 1148.340576171875 C 851.6461181640625 1148.348266601563 851.65625 1148.355834960938 851.66650390625 1148.363525390625 C 851.1587524414063 1148.451049804688 850.5941772460938 1148.499877929688 849.9996337890625 1148.499877929688 Z M 842.0049438476563 1148.499877929688 C 841.6900024414063 1148.499877929688 841.3836059570313 1148.486206054688 841.0894775390625 1148.460327148438 C 841.096435546875 1148.454956054688 841.1033325195313 1148.449584960938 841.1102905273438 1148.444091796875 C 839.4039916992188 1148.298217773438 838.1773681640625 1147.764892578125 838.0176391601563 1147.122802734375 C 838.0089111328125 1147.082397460938 838.00439453125 1147.041748046875 838.00439453125 1147.00048828125 C 838.00439453125 1146.4208984375 838.8693237304688 1145.903442382813 840.2625122070313 1145.648681640625 C 840.255615234375 1145.6435546875 840.2487182617188 1145.638427734375 840.2418823242188 1145.63330078125 C 840.7728881835938 1145.535522460938 841.3699340820313 1145.48046875 842.0004272460938 1145.48046875 C 842.8652954101563 1145.48046875 843.7221069335938 1145.58837890625 844.4124145507813 1145.78369140625 C 844.143310546875 1146.134765625 844.000244140625 1146.555053710938 844.000244140625 1147.00048828125 C 844.000244140625 1147.450927734375 844.1499633789063 1147.866943359375 844.4022216796875 1148.20166015625 C 843.7147827148438 1148.395874023438 842.8831176757813 1148.499877929688 842.0049438476563 1148.499877929688 Z M 846.9971923828125 1147.991455078125 L 846.9945068359375 1147.990478515625 C 846.5795288085938 1147.8134765625 846.2785034179688 1147.600219726563 846.124267578125 1147.372680664063 C 846.2359008789063 1147.262451171875 846.3131713867188 1147.100952148438 846.3546142578125 1146.889770507813 C 846.3641357421875 1146.8837890625 846.3735961914063 1146.87744140625 846.383056640625 1146.870971679688 C 846.41455078125 1146.904296875 846.4417114257813 1146.940551757813 846.4644165039063 1146.979858398438 C 846.5103149414063 1147.060791015625 846.5372924804688 1147.152587890625 846.5436401367188 1147.251586914063 C 846.7109985351563 1147.42529296875 846.8630981445313 1147.673706054688 846.996337890625 1147.989624023438 L 846.9971923828125 1147.991455078125 Z M 845.5570678710938 1147.034545898438 C 845.549560546875 1147.0234375 845.5423583984375 1147.012084960938 845.53564453125 1147.00048828125 C 845.48974609375 1146.919555664063 845.4627075195313 1146.82861328125 845.4564208984375 1146.73046875 C 845.2881469726563 1146.555053710938 845.1360473632813 1146.305786132813 845.0028076171875 1145.988891601563 C 845.3907470703125 1146.154907226563 845.6781005859375 1146.350830078125 845.8406372070313 1146.5595703125 C 845.704833984375 1146.6591796875 845.609619140625 1146.818725585938 845.5570678710938 1147.034545898438 Z M 845.0028076171875 1145.988891601563 L 845.0001220703125 1145.988037109375 C 844.8246459960938 1145.913330078125 844.6266479492188 1145.844970703125 844.4124145507813 1145.78369140625 C 844.52490234375 1145.637939453125 844.6553955078125 1145.50927734375 844.80029296875 1145.400268554688 C 844.8588256835938 1145.609985351563 844.9263305664063 1145.80712890625 845.0018920898438 1145.987182617188 L 845.0028076171875 1145.988891601563 Z M 847.2030639648438 1145.404174804688 C 846.8680419921875 1145.151000976563 846.4512329101563 1145.000732421875 846 1145.000732421875 C 845.5635375976563 1145.000732421875 845.1486206054688 1145.139282226563 844.80029296875 1145.400268554688 C 844.6058959960938 1144.709106445313 844.4996948242188 1143.856811523438 844.4996948242188 1143.0009765625 C 844.4996948242188 1142.693359375 844.5128173828125 1142.39404296875 844.5375366210938 1142.106201171875 C 844.5387573242188 1142.107788085938 844.5399169921875 1142.109252929688 844.5411376953125 1142.11083984375 C 844.5986938476563 1141.433471679688 844.7174072265625 1140.831909179688 844.8798828125 1140.342407226563 C 845.0302124023438 1139.892700195313 845.218017578125 1139.533569335938 845.4299926757813 1139.300537109375 C 845.6069946289063 1139.10693359375 845.800537109375 1139.001220703125 846.00244140625 1139.00048828125 C 846.5730590820313 1139.0029296875 847.1019897460938 1139.888793945313 847.3508911132813 1141.257568359375 C 847.3519287109375 1141.256225585938 847.3529663085938 1141.2548828125 847.35400390625 1141.253540039063 C 847.4505615234375 1141.78173828125 847.5048217773438 1142.374633789063 847.5048217773438 1143.0009765625 C 847.5048217773438 1143.871337890625 847.39697265625 1144.715942382813 847.2030639648438 1145.404174804688 Z" stroke="none" fill="#707070"/>
    </g>
    <g id="Intersection_6" data-name="Intersection 6" transform="translate(1457.669 590.858) rotate(135)" fill="#fff">
      <path d="M 845.9606323242188 1154.470581054688 C 845.7901611328125 1154.399291992188 845.3734130859375 1153.911499023438 845.1410522460938 1152.63330078125 L 844.934814453125 1151.498779296875 L 844.9074096679688 1151.535766601563 C 844.8976440429688 1151.35546875 844.8926391601563 1151.173095703125 844.8926391601563 1150.990234375 C 844.8926391601563 1150.404296875 844.9439697265625 1149.826538085938 845.0401000976563 1149.307983398438 C 845.34228515625 1149.433959960938 845.6685180664063 1149.500366210938 846 1149.500366210938 C 846.2984619140625 1149.500366210938 846.5887451171875 1149.44873046875 846.8617553710938 1149.348388671875 C 846.9314575195313 1149.738403320313 846.9761352539063 1150.161499023438 846.9928588867188 1150.594116210938 L 846.9673461914063 1150.561157226563 L 846.858154296875 1151.837768554688 C 846.7159423828125 1153.5 846.2314453125 1154.332275390625 845.9606323242188 1154.470581054688 Z M 849.9996337890625 1147.999877929688 C 849.426513671875 1147.999877929688 848.8592529296875 1147.95068359375 848.3493041992188 1147.858520507813 C 848.4486083984375 1147.586669921875 848.4998168945313 1147.297607421875 848.4998168945313 1147.00048828125 C 848.4998168945313 1146.692260742188 848.44482421875 1146.393310546875 848.3380737304688 1146.113159179688 C 848.8201293945313 1146.03173828125 849.3470458984375 1145.989379882813 849.8925170898438 1145.989379882813 C 850.097412109375 1145.989379882813 850.301513671875 1145.995483398438 850.5026245117188 1146.007690429688 L 850.848388671875 1146.036376953125 C 850.8861083984375 1146.03955078125 850.9234619140625 1146.04296875 850.9606323242188 1146.046630859375 C 852.6930541992188 1146.236938476563 853.3930053710938 1146.791381835938 853.3930053710938 1146.990600585938 C 853.3930053710938 1147.12451171875 852.9383544921875 1147.595458984375 851.5463256835938 1147.8486328125 L 850.9735717773438 1147.952758789063 C 850.6585693359375 1147.984130859375 850.3328247070313 1147.999877929688 849.9996337890625 1147.999877929688 Z M 842.0049438476563 1147.999877929688 C 841.9183959960938 1147.999877929688 841.8319091796875 1147.998779296875 841.7457885742188 1147.99658203125 L 841.1528930664063 1147.945922851563 C 839.3276977539063 1147.789916992188 838.5772705078125 1147.244384765625 838.5050659179688 1147.010131835938 C 838.504638671875 1147.006713867188 838.50439453125 1147.003540039063 838.50439453125 1147.00048828125 C 838.50439453125 1146.861083984375 838.9423828125 1146.398315429688 840.3524780273438 1146.140502929688 L 840.89111328125 1146.0419921875 C 841.24755859375 1146.001098632813 841.6187744140625 1145.98046875 842.0004272460938 1145.98046875 C 842.5755615234375 1145.98046875 843.1451416015625 1146.030151367188 843.65771484375 1146.123168945313 C 843.5537719726563 1146.400634765625 843.500244140625 1146.696166992188 843.500244140625 1147.00048828125 C 843.500244140625 1147.29833984375 843.5519409179688 1147.588256835938 843.6522216796875 1147.860961914063 C 843.1473388671875 1147.952392578125 842.5885620117188 1147.999877929688 842.0049438476563 1147.999877929688 Z M 846.8623046875 1144.6533203125 C 846.5890502929688 1144.552612304688 846.298583984375 1144.500732421875 846 1144.500732421875 C 845.7030639648438 1144.500732421875 845.4139404296875 1144.552001953125 845.1417846679688 1144.651489257813 C 845.0491943359375 1144.140380859375 844.9996948242188 1143.572998046875 844.9996948242188 1143.0009765625 C 844.9996948242188 1142.807495117188 845.0051879882813 1142.6142578125 845.01611328125 1142.423583984375 L 845.0393676757813 1142.153198242188 C 845.0919189453125 1141.5341796875 845.2008666992188 1140.962524414063 845.3544311523438 1140.499877929688 C 845.4815063476563 1140.119750976563 845.6398315429688 1139.812866210938 845.7998657226563 1139.636962890625 C 845.8775024414063 1139.552001953125 845.9542236328125 1139.500610351563 846.0042724609375 1139.50048828125 C 846.1343994140625 1139.501098632813 846.6061401367188 1139.956787109375 846.8589477539063 1141.347045898438 L 846.9037475585938 1141.59326171875 C 846.9708862304688 1142.0390625 847.0048217773438 1142.511474609375 847.0048217773438 1143.0009765625 C 847.0048217773438 1143.573486328125 846.9551391601563 1144.141479492188 846.8623046875 1144.6533203125 Z" stroke="none"/>
      <path d="M 845.951171875 1153.63916015625 C 846.1105346679688 1153.272583007813 846.2858276367188 1152.661987304688 846.3599853515625 1151.795166015625 L 846.4812622070313 1150.377685546875 C 846.472412109375 1150.238891601563 846.4605712890625 1150.10205078125 846.44580078125 1149.9677734375 C 846.2994995117188 1149.989379882813 846.1505737304688 1150.000366210938 846 1150.000366210938 C 845.8145751953125 1150.000366210938 845.6305541992188 1149.983032226563 845.4501342773438 1149.949340820313 C 845.412353515625 1150.28369140625 845.3926391601563 1150.635009765625 845.3926391601563 1150.990234375 C 845.3926391601563 1151.073486328125 845.3937377929688 1151.15673828125 845.3958740234375 1151.239501953125 L 845.6329956054688 1152.5439453125 C 845.72412109375 1153.04541015625 845.8435668945313 1153.400756835938 845.951171875 1153.63916015625 M 849.9996337890625 1147.499877929688 C 850.309326171875 1147.499877929688 850.6117553710938 1147.485595703125 850.9041137695313 1147.457275390625 L 851.4569091796875 1147.356689453125 C 852.035888671875 1147.25146484375 852.42041015625 1147.1083984375 852.65478515625 1146.989501953125 C 852.3330078125 1146.829833984375 851.7550048828125 1146.63720703125 850.9093627929688 1146.5439453125 C 850.87548828125 1146.540649414063 850.8414306640625 1146.537475585938 850.80712890625 1146.53466796875 L 850.4668579101563 1146.506469726563 C 850.277587890625 1146.4951171875 850.08544921875 1146.489379882813 849.8925170898438 1146.489379882813 C 849.5732421875 1146.489379882813 849.261474609375 1146.504516601563 848.962890625 1146.534057617188 C 848.9873046875 1146.687866210938 848.9998168945313 1146.843872070313 848.9998168945313 1147.00048828125 C 848.9998168945313 1147.150146484375 848.989013671875 1147.298095703125 848.9676513671875 1147.443481445313 C 849.2996215820313 1147.48046875 849.6480102539063 1147.499877929688 849.9996337890625 1147.499877929688 M 842.0049438476563 1147.499877929688 C 842.3607177734375 1147.499877929688 842.7057495117188 1147.4814453125 843.0328369140625 1147.445556640625 C 843.01123046875 1147.299438476563 843.000244140625 1147.15087890625 843.000244140625 1147.00048828125 C 843.000244140625 1146.843872070313 843.0120849609375 1146.689208984375 843.035400390625 1146.537353515625 C 842.7022705078125 1146.5 842.3529052734375 1146.48046875 842.0004272460938 1146.48046875 C 841.6468505859375 1146.48046875 841.2942504882813 1146.500122070313 840.9584350585938 1146.537963867188 L 840.4423828125 1146.63232421875 C 839.8671875 1146.737548828125 839.4849243164063 1146.876586914063 839.2506103515625 1146.992309570313 C 839.6007690429688 1147.162841796875 840.2435302734375 1147.366333007813 841.1954956054688 1147.44775390625 L 841.7733764648438 1147.4970703125 C 841.850341796875 1147.498901367188 841.9275512695313 1147.499877929688 842.0049438476563 1147.499877929688 M 846.4478149414063 1144.033813476563 C 846.4852905273438 1143.701049804688 846.5048217773438 1143.352294921875 846.5048217773438 1143.0009765625 C 846.5048217773438 1142.5390625 846.47314453125 1142.094360351563 846.4104614257813 1141.675415039063 L 846.3670043945313 1141.4365234375 C 846.2617797851563 1140.857543945313 846.1188354492188 1140.473266601563 845.9998779296875 1140.239013671875 C 845.9476318359375 1140.342041015625 845.888671875 1140.478881835938 845.8289794921875 1140.657470703125 C 845.6876220703125 1141.083251953125 845.5868530273438 1141.615112304688 845.5375366210938 1142.195556640625 L 845.5137939453125 1142.478637695313 C 845.50439453125 1142.651245117188 845.4996948242188 1142.825927734375 845.4996948242188 1143.0009765625 C 845.4996948242188 1143.352172851563 845.5191650390625 1143.700561523438 845.5565185546875 1144.033081054688 C 845.7021484375 1144.011596679688 845.8502807617188 1144.000732421875 846 1144.000732421875 C 846.1513061523438 1144.000732421875 846.3008422851563 1144.011840820313 846.4478149414063 1144.033813476563 M 846 1154.97998046875 C 845.4285278320313 1154.97998046875 844.8984375 1154.094360351563 844.6491088867188 1152.722778320313 C 844.6203002929688 1152.761596679688 844.5914306640625 1152.7998046875 844.5624389648438 1152.837524414063 C 844.4539794921875 1152.28466796875 844.3926391601563 1151.656127929688 844.3926391601563 1150.990234375 C 844.3926391601563 1150.09521484375 844.506103515625 1149.226806640625 844.7107543945313 1148.527954101563 C 845.0591430664063 1148.822509765625 845.50927734375 1149.000366210938 846 1149.000366210938 C 846.4382934570313 1149.000366210938 846.8550415039063 1148.86083984375 847.2042236328125 1148.59716796875 L 847.2042236328125 1148.595336914063 C 847.1439208984375 1148.377563476563 847.0746459960938 1148.174072265625 846.9971923828125 1147.991455078125 C 847.1744995117188 1148.067016601563 847.3760986328125 1148.13720703125 847.6002197265625 1148.2001953125 C 847.4859008789063 1148.351440429688 847.3536376953125 1148.484619140625 847.2051391601563 1148.59619140625 L 847.2042236328125 1148.59716796875 C 847.3959350585938 1149.283813476563 847.5003051757813 1150.1298828125 847.5003051757813 1150.979370117188 C 847.5003051757813 1151.33203125 847.4830932617188 1151.674194335938 847.4508056640625 1152.000122070313 C 847.4192504882813 1151.960815429688 847.3876953125 1151.9208984375 847.3563232421875 1151.88037109375 C 847.2080688476563 1153.613159179688 846.6607055664063 1154.852416992188 846.0049438476563 1154.979858398438 C 846.0032958984375 1154.979858398438 846.0016479492188 1154.97998046875 846 1154.97998046875 Z M 849.9996337890625 1148.499877929688 C 849.14013671875 1148.499877929688 848.287841796875 1148.393676757813 847.6002197265625 1148.2001953125 C 847.8612060546875 1147.852783203125 847.9998168945313 1147.43798828125 847.9998168945313 1147.00048828125 C 847.9998168945313 1146.535766601563 847.84033203125 1146.107421875 847.5732421875 1145.767456054688 C 848.2454833984375 1145.5869140625 849.047119140625 1145.489379882813 849.8925170898438 1145.489379882813 C 850.2373046875 1145.489379882813 850.5718994140625 1145.505859375 850.891357421875 1145.536743164063 C 850.8908081054688 1145.537231445313 850.8902587890625 1145.53759765625 850.8897094726563 1145.5380859375 C 850.9309692382813 1145.54150390625 850.9718627929688 1145.545288085938 851.0125732421875 1145.54931640625 C 852.6749877929688 1145.7314453125 853.8930053710938 1146.308471679688 853.8930053710938 1146.990600585938 C 853.8930053710938 1147.561279296875 853.0065307617188 1148.09130859375 851.6358032226563 1148.340576171875 C 851.6461181640625 1148.348266601563 851.65625 1148.355834960938 851.66650390625 1148.363525390625 C 851.1587524414063 1148.451049804688 850.5941772460938 1148.499877929688 849.9996337890625 1148.499877929688 Z M 842.0049438476563 1148.499877929688 C 841.6900024414063 1148.499877929688 841.3836059570313 1148.486206054688 841.0894775390625 1148.460327148438 C 841.096435546875 1148.454956054688 841.1033325195313 1148.449584960938 841.1102905273438 1148.444091796875 C 839.4039916992188 1148.298217773438 838.1773681640625 1147.764892578125 838.0176391601563 1147.122802734375 C 838.0089111328125 1147.082397460938 838.00439453125 1147.041748046875 838.00439453125 1147.00048828125 C 838.00439453125 1146.4208984375 838.8693237304688 1145.903442382813 840.2625122070313 1145.648681640625 C 840.255615234375 1145.6435546875 840.2487182617188 1145.638427734375 840.2418823242188 1145.63330078125 C 840.7728881835938 1145.535522460938 841.3699340820313 1145.48046875 842.0004272460938 1145.48046875 C 842.8652954101563 1145.48046875 843.7221069335938 1145.58837890625 844.4124145507813 1145.78369140625 C 844.143310546875 1146.134765625 844.000244140625 1146.555053710938 844.000244140625 1147.00048828125 C 844.000244140625 1147.450927734375 844.1499633789063 1147.866943359375 844.4022216796875 1148.20166015625 C 843.7147827148438 1148.395874023438 842.8831176757813 1148.499877929688 842.0049438476563 1148.499877929688 Z M 846.9971923828125 1147.991455078125 L 846.9945068359375 1147.990478515625 C 846.5795288085938 1147.8134765625 846.2785034179688 1147.600219726563 846.124267578125 1147.372680664063 C 846.2359008789063 1147.262451171875 846.3131713867188 1147.100952148438 846.3546142578125 1146.889770507813 C 846.3641357421875 1146.8837890625 846.3735961914063 1146.87744140625 846.383056640625 1146.870971679688 C 846.41455078125 1146.904296875 846.4417114257813 1146.940551757813 846.4644165039063 1146.979858398438 C 846.5103149414063 1147.060791015625 846.5372924804688 1147.152587890625 846.5436401367188 1147.251586914063 C 846.7109985351563 1147.42529296875 846.8630981445313 1147.673706054688 846.996337890625 1147.989624023438 L 846.9971923828125 1147.991455078125 Z M 845.5570678710938 1147.034545898438 C 845.549560546875 1147.0234375 845.5423583984375 1147.012084960938 845.53564453125 1147.00048828125 C 845.48974609375 1146.919555664063 845.4627075195313 1146.82861328125 845.4564208984375 1146.73046875 C 845.2881469726563 1146.555053710938 845.1360473632813 1146.305786132813 845.0028076171875 1145.988891601563 C 845.3907470703125 1146.154907226563 845.6781005859375 1146.350830078125 845.8406372070313 1146.5595703125 C 845.704833984375 1146.6591796875 845.609619140625 1146.818725585938 845.5570678710938 1147.034545898438 Z M 845.0028076171875 1145.988891601563 L 845.0001220703125 1145.988037109375 C 844.8246459960938 1145.913330078125 844.6266479492188 1145.844970703125 844.4124145507813 1145.78369140625 C 844.52490234375 1145.637939453125 844.6553955078125 1145.50927734375 844.80029296875 1145.400268554688 C 844.8588256835938 1145.609985351563 844.9263305664063 1145.80712890625 845.0018920898438 1145.987182617188 L 845.0028076171875 1145.988891601563 Z M 847.2030639648438 1145.404174804688 C 846.8680419921875 1145.151000976563 846.4512329101563 1145.000732421875 846 1145.000732421875 C 845.5635375976563 1145.000732421875 845.1486206054688 1145.139282226563 844.80029296875 1145.400268554688 C 844.6058959960938 1144.709106445313 844.4996948242188 1143.856811523438 844.4996948242188 1143.0009765625 C 844.4996948242188 1142.693359375 844.5128173828125 1142.39404296875 844.5375366210938 1142.106201171875 C 844.5387573242188 1142.107788085938 844.5399169921875 1142.109252929688 844.5411376953125 1142.11083984375 C 844.5986938476563 1141.433471679688 844.7174072265625 1140.831909179688 844.8798828125 1140.342407226563 C 845.0302124023438 1139.892700195313 845.218017578125 1139.533569335938 845.4299926757813 1139.300537109375 C 845.6069946289063 1139.10693359375 845.800537109375 1139.001220703125 846.00244140625 1139.00048828125 C 846.5730590820313 1139.0029296875 847.1019897460938 1139.888793945313 847.3508911132813 1141.257568359375 C 847.3519287109375 1141.256225585938 847.3529663085938 1141.2548828125 847.35400390625 1141.253540039063 C 847.4505615234375 1141.78173828125 847.5048217773438 1142.374633789063 847.5048217773438 1143.0009765625 C 847.5048217773438 1143.871337890625 847.39697265625 1144.715942382813 847.2030639648438 1145.404174804688 Z" stroke="none" fill="#707070"/>
    </g>
    <g id="Intersection_7" data-name="Intersection 7" transform="translate(894.397 1524.98) rotate(180)" fill="#fff">
      <path d="M 845.9606323242188 1154.470581054688 C 845.7901611328125 1154.399291992188 845.3734130859375 1153.911499023438 845.1410522460938 1152.63330078125 L 844.934814453125 1151.498779296875 L 844.9074096679688 1151.535766601563 C 844.8976440429688 1151.35546875 844.8926391601563 1151.173095703125 844.8926391601563 1150.990234375 C 844.8926391601563 1150.404296875 844.9439697265625 1149.826538085938 845.0401000976563 1149.307983398438 C 845.34228515625 1149.433959960938 845.6685180664063 1149.500366210938 846 1149.500366210938 C 846.2984619140625 1149.500366210938 846.5887451171875 1149.44873046875 846.8617553710938 1149.348388671875 C 846.9314575195313 1149.738403320313 846.9761352539063 1150.161499023438 846.9928588867188 1150.594116210938 L 846.9673461914063 1150.561157226563 L 846.858154296875 1151.837768554688 C 846.7159423828125 1153.5 846.2314453125 1154.332275390625 845.9606323242188 1154.470581054688 Z M 849.9996337890625 1147.999877929688 C 849.426513671875 1147.999877929688 848.8592529296875 1147.95068359375 848.3493041992188 1147.858520507813 C 848.4486083984375 1147.586669921875 848.4998168945313 1147.297607421875 848.4998168945313 1147.00048828125 C 848.4998168945313 1146.692260742188 848.44482421875 1146.393310546875 848.3380737304688 1146.113159179688 C 848.8201293945313 1146.03173828125 849.3470458984375 1145.989379882813 849.8925170898438 1145.989379882813 C 850.097412109375 1145.989379882813 850.301513671875 1145.995483398438 850.5026245117188 1146.007690429688 L 850.848388671875 1146.036376953125 C 850.8861083984375 1146.03955078125 850.9234619140625 1146.04296875 850.9606323242188 1146.046630859375 C 852.6930541992188 1146.236938476563 853.3930053710938 1146.791381835938 853.3930053710938 1146.990600585938 C 853.3930053710938 1147.12451171875 852.9383544921875 1147.595458984375 851.5463256835938 1147.8486328125 L 850.9735717773438 1147.952758789063 C 850.6585693359375 1147.984130859375 850.3328247070313 1147.999877929688 849.9996337890625 1147.999877929688 Z M 842.0049438476563 1147.999877929688 C 841.9183959960938 1147.999877929688 841.8319091796875 1147.998779296875 841.7457885742188 1147.99658203125 L 841.1528930664063 1147.945922851563 C 839.3276977539063 1147.789916992188 838.5772705078125 1147.244384765625 838.5050659179688 1147.010131835938 C 838.504638671875 1147.006713867188 838.50439453125 1147.003540039063 838.50439453125 1147.00048828125 C 838.50439453125 1146.861083984375 838.9423828125 1146.398315429688 840.3524780273438 1146.140502929688 L 840.89111328125 1146.0419921875 C 841.24755859375 1146.001098632813 841.6187744140625 1145.98046875 842.0004272460938 1145.98046875 C 842.5755615234375 1145.98046875 843.1451416015625 1146.030151367188 843.65771484375 1146.123168945313 C 843.5537719726563 1146.400634765625 843.500244140625 1146.696166992188 843.500244140625 1147.00048828125 C 843.500244140625 1147.29833984375 843.5519409179688 1147.588256835938 843.6522216796875 1147.860961914063 C 843.1473388671875 1147.952392578125 842.5885620117188 1147.999877929688 842.0049438476563 1147.999877929688 Z M 846.8623046875 1144.6533203125 C 846.5890502929688 1144.552612304688 846.298583984375 1144.500732421875 846 1144.500732421875 C 845.7030639648438 1144.500732421875 845.4139404296875 1144.552001953125 845.1417846679688 1144.651489257813 C 845.0491943359375 1144.140380859375 844.9996948242188 1143.572998046875 844.9996948242188 1143.0009765625 C 844.9996948242188 1142.807495117188 845.0051879882813 1142.6142578125 845.01611328125 1142.423583984375 L 845.0393676757813 1142.153198242188 C 845.0919189453125 1141.5341796875 845.2008666992188 1140.962524414063 845.3544311523438 1140.499877929688 C 845.4815063476563 1140.119750976563 845.6398315429688 1139.812866210938 845.7998657226563 1139.636962890625 C 845.8775024414063 1139.552001953125 845.9542236328125 1139.500610351563 846.0042724609375 1139.50048828125 C 846.1343994140625 1139.501098632813 846.6061401367188 1139.956787109375 846.8589477539063 1141.347045898438 L 846.9037475585938 1141.59326171875 C 846.9708862304688 1142.0390625 847.0048217773438 1142.511474609375 847.0048217773438 1143.0009765625 C 847.0048217773438 1143.573486328125 846.9551391601563 1144.141479492188 846.8623046875 1144.6533203125 Z" stroke="none"/>
      <path d="M 845.951171875 1153.63916015625 C 846.1105346679688 1153.272583007813 846.2858276367188 1152.661987304688 846.3599853515625 1151.795166015625 L 846.4812622070313 1150.377685546875 C 846.472412109375 1150.238891601563 846.4605712890625 1150.10205078125 846.44580078125 1149.9677734375 C 846.2994995117188 1149.989379882813 846.1505737304688 1150.000366210938 846 1150.000366210938 C 845.8145751953125 1150.000366210938 845.6305541992188 1149.983032226563 845.4501342773438 1149.949340820313 C 845.412353515625 1150.28369140625 845.3926391601563 1150.635009765625 845.3926391601563 1150.990234375 C 845.3926391601563 1151.073486328125 845.3937377929688 1151.15673828125 845.3958740234375 1151.239501953125 L 845.6329956054688 1152.5439453125 C 845.72412109375 1153.04541015625 845.8435668945313 1153.400756835938 845.951171875 1153.63916015625 M 849.9996337890625 1147.499877929688 C 850.309326171875 1147.499877929688 850.6117553710938 1147.485595703125 850.9041137695313 1147.457275390625 L 851.4569091796875 1147.356689453125 C 852.035888671875 1147.25146484375 852.42041015625 1147.1083984375 852.65478515625 1146.989501953125 C 852.3330078125 1146.829833984375 851.7550048828125 1146.63720703125 850.9093627929688 1146.5439453125 C 850.87548828125 1146.540649414063 850.8414306640625 1146.537475585938 850.80712890625 1146.53466796875 L 850.4668579101563 1146.506469726563 C 850.277587890625 1146.4951171875 850.08544921875 1146.489379882813 849.8925170898438 1146.489379882813 C 849.5732421875 1146.489379882813 849.261474609375 1146.504516601563 848.962890625 1146.534057617188 C 848.9873046875 1146.687866210938 848.9998168945313 1146.843872070313 848.9998168945313 1147.00048828125 C 848.9998168945313 1147.150146484375 848.989013671875 1147.298095703125 848.9676513671875 1147.443481445313 C 849.2996215820313 1147.48046875 849.6480102539063 1147.499877929688 849.9996337890625 1147.499877929688 M 842.0049438476563 1147.499877929688 C 842.3607177734375 1147.499877929688 842.7057495117188 1147.4814453125 843.0328369140625 1147.445556640625 C 843.01123046875 1147.299438476563 843.000244140625 1147.15087890625 843.000244140625 1147.00048828125 C 843.000244140625 1146.843872070313 843.0120849609375 1146.689208984375 843.035400390625 1146.537353515625 C 842.7022705078125 1146.5 842.3529052734375 1146.48046875 842.0004272460938 1146.48046875 C 841.6468505859375 1146.48046875 841.2942504882813 1146.500122070313 840.9584350585938 1146.537963867188 L 840.4423828125 1146.63232421875 C 839.8671875 1146.737548828125 839.4849243164063 1146.876586914063 839.2506103515625 1146.992309570313 C 839.6007690429688 1147.162841796875 840.2435302734375 1147.366333007813 841.1954956054688 1147.44775390625 L 841.7733764648438 1147.4970703125 C 841.850341796875 1147.498901367188 841.9275512695313 1147.499877929688 842.0049438476563 1147.499877929688 M 846.4478149414063 1144.033813476563 C 846.4852905273438 1143.701049804688 846.5048217773438 1143.352294921875 846.5048217773438 1143.0009765625 C 846.5048217773438 1142.5390625 846.47314453125 1142.094360351563 846.4104614257813 1141.675415039063 L 846.3670043945313 1141.4365234375 C 846.2617797851563 1140.857543945313 846.1188354492188 1140.473266601563 845.9998779296875 1140.239013671875 C 845.9476318359375 1140.342041015625 845.888671875 1140.478881835938 845.8289794921875 1140.657470703125 C 845.6876220703125 1141.083251953125 845.5868530273438 1141.615112304688 845.5375366210938 1142.195556640625 L 845.5137939453125 1142.478637695313 C 845.50439453125 1142.651245117188 845.4996948242188 1142.825927734375 845.4996948242188 1143.0009765625 C 845.4996948242188 1143.352172851563 845.5191650390625 1143.700561523438 845.5565185546875 1144.033081054688 C 845.7021484375 1144.011596679688 845.8502807617188 1144.000732421875 846 1144.000732421875 C 846.1513061523438 1144.000732421875 846.3008422851563 1144.011840820313 846.4478149414063 1144.033813476563 M 846 1154.97998046875 C 845.4285278320313 1154.97998046875 844.8984375 1154.094360351563 844.6491088867188 1152.722778320313 C 844.6203002929688 1152.761596679688 844.5914306640625 1152.7998046875 844.5624389648438 1152.837524414063 C 844.4539794921875 1152.28466796875 844.3926391601563 1151.656127929688 844.3926391601563 1150.990234375 C 844.3926391601563 1150.09521484375 844.506103515625 1149.226806640625 844.7107543945313 1148.527954101563 C 845.0591430664063 1148.822509765625 845.50927734375 1149.000366210938 846 1149.000366210938 C 846.4382934570313 1149.000366210938 846.8550415039063 1148.86083984375 847.2042236328125 1148.59716796875 L 847.2042236328125 1148.595336914063 C 847.1439208984375 1148.377563476563 847.0746459960938 1148.174072265625 846.9971923828125 1147.991455078125 C 847.1744995117188 1148.067016601563 847.3760986328125 1148.13720703125 847.6002197265625 1148.2001953125 C 847.4859008789063 1148.351440429688 847.3536376953125 1148.484619140625 847.2051391601563 1148.59619140625 L 847.2042236328125 1148.59716796875 C 847.3959350585938 1149.283813476563 847.5003051757813 1150.1298828125 847.5003051757813 1150.979370117188 C 847.5003051757813 1151.33203125 847.4830932617188 1151.674194335938 847.4508056640625 1152.000122070313 C 847.4192504882813 1151.960815429688 847.3876953125 1151.9208984375 847.3563232421875 1151.88037109375 C 847.2080688476563 1153.613159179688 846.6607055664063 1154.852416992188 846.0049438476563 1154.979858398438 C 846.0032958984375 1154.979858398438 846.0016479492188 1154.97998046875 846 1154.97998046875 Z M 849.9996337890625 1148.499877929688 C 849.14013671875 1148.499877929688 848.287841796875 1148.393676757813 847.6002197265625 1148.2001953125 C 847.8612060546875 1147.852783203125 847.9998168945313 1147.43798828125 847.9998168945313 1147.00048828125 C 847.9998168945313 1146.535766601563 847.84033203125 1146.107421875 847.5732421875 1145.767456054688 C 848.2454833984375 1145.5869140625 849.047119140625 1145.489379882813 849.8925170898438 1145.489379882813 C 850.2373046875 1145.489379882813 850.5718994140625 1145.505859375 850.891357421875 1145.536743164063 C 850.8908081054688 1145.537231445313 850.8902587890625 1145.53759765625 850.8897094726563 1145.5380859375 C 850.9309692382813 1145.54150390625 850.9718627929688 1145.545288085938 851.0125732421875 1145.54931640625 C 852.6749877929688 1145.7314453125 853.8930053710938 1146.308471679688 853.8930053710938 1146.990600585938 C 853.8930053710938 1147.561279296875 853.0065307617188 1148.09130859375 851.6358032226563 1148.340576171875 C 851.6461181640625 1148.348266601563 851.65625 1148.355834960938 851.66650390625 1148.363525390625 C 851.1587524414063 1148.451049804688 850.5941772460938 1148.499877929688 849.9996337890625 1148.499877929688 Z M 842.0049438476563 1148.499877929688 C 841.6900024414063 1148.499877929688 841.3836059570313 1148.486206054688 841.0894775390625 1148.460327148438 C 841.096435546875 1148.454956054688 841.1033325195313 1148.449584960938 841.1102905273438 1148.444091796875 C 839.4039916992188 1148.298217773438 838.1773681640625 1147.764892578125 838.0176391601563 1147.122802734375 C 838.0089111328125 1147.082397460938 838.00439453125 1147.041748046875 838.00439453125 1147.00048828125 C 838.00439453125 1146.4208984375 838.8693237304688 1145.903442382813 840.2625122070313 1145.648681640625 C 840.255615234375 1145.6435546875 840.2487182617188 1145.638427734375 840.2418823242188 1145.63330078125 C 840.7728881835938 1145.535522460938 841.3699340820313 1145.48046875 842.0004272460938 1145.48046875 C 842.8652954101563 1145.48046875 843.7221069335938 1145.58837890625 844.4124145507813 1145.78369140625 C 844.143310546875 1146.134765625 844.000244140625 1146.555053710938 844.000244140625 1147.00048828125 C 844.000244140625 1147.450927734375 844.1499633789063 1147.866943359375 844.4022216796875 1148.20166015625 C 843.7147827148438 1148.395874023438 842.8831176757813 1148.499877929688 842.0049438476563 1148.499877929688 Z M 846.9971923828125 1147.991455078125 L 846.9945068359375 1147.990478515625 C 846.5795288085938 1147.8134765625 846.2785034179688 1147.600219726563 846.124267578125 1147.372680664063 C 846.2359008789063 1147.262451171875 846.3131713867188 1147.100952148438 846.3546142578125 1146.889770507813 C 846.3641357421875 1146.8837890625 846.3735961914063 1146.87744140625 846.383056640625 1146.870971679688 C 846.41455078125 1146.904296875 846.4417114257813 1146.940551757813 846.4644165039063 1146.979858398438 C 846.5103149414063 1147.060791015625 846.5372924804688 1147.152587890625 846.5436401367188 1147.251586914063 C 846.7109985351563 1147.42529296875 846.8630981445313 1147.673706054688 846.996337890625 1147.989624023438 L 846.9971923828125 1147.991455078125 Z M 845.5570678710938 1147.034545898438 C 845.549560546875 1147.0234375 845.5423583984375 1147.012084960938 845.53564453125 1147.00048828125 C 845.48974609375 1146.919555664063 845.4627075195313 1146.82861328125 845.4564208984375 1146.73046875 C 845.2881469726563 1146.555053710938 845.1360473632813 1146.305786132813 845.0028076171875 1145.988891601563 C 845.3907470703125 1146.154907226563 845.6781005859375 1146.350830078125 845.8406372070313 1146.5595703125 C 845.704833984375 1146.6591796875 845.609619140625 1146.818725585938 845.5570678710938 1147.034545898438 Z M 845.0028076171875 1145.988891601563 L 845.0001220703125 1145.988037109375 C 844.8246459960938 1145.913330078125 844.6266479492188 1145.844970703125 844.4124145507813 1145.78369140625 C 844.52490234375 1145.637939453125 844.6553955078125 1145.50927734375 844.80029296875 1145.400268554688 C 844.8588256835938 1145.609985351563 844.9263305664063 1145.80712890625 845.0018920898438 1145.987182617188 L 845.0028076171875 1145.988891601563 Z M 847.2030639648438 1145.404174804688 C 846.8680419921875 1145.151000976563 846.4512329101563 1145.000732421875 846 1145.000732421875 C 845.5635375976563 1145.000732421875 845.1486206054688 1145.139282226563 844.80029296875 1145.400268554688 C 844.6058959960938 1144.709106445313 844.4996948242188 1143.856811523438 844.4996948242188 1143.0009765625 C 844.4996948242188 1142.693359375 844.5128173828125 1142.39404296875 844.5375366210938 1142.106201171875 C 844.5387573242188 1142.107788085938 844.5399169921875 1142.109252929688 844.5411376953125 1142.11083984375 C 844.5986938476563 1141.433471679688 844.7174072265625 1140.831909179688 844.8798828125 1140.342407226563 C 845.0302124023438 1139.892700195313 845.218017578125 1139.533569335938 845.4299926757813 1139.300537109375 C 845.6069946289063 1139.10693359375 845.800537109375 1139.001220703125 846.00244140625 1139.00048828125 C 846.5730590820313 1139.0029296875 847.1019897460938 1139.888793945313 847.3508911132813 1141.257568359375 C 847.3519287109375 1141.256225585938 847.3529663085938 1141.2548828125 847.35400390625 1141.253540039063 C 847.4505615234375 1141.78173828125 847.5048217773438 1142.374633789063 847.5048217773438 1143.0009765625 C 847.5048217773438 1143.871337890625 847.39697265625 1144.715942382813 847.2030639648438 1145.404174804688 Z" stroke="none" fill="#707070"/>
    </g>
  </g>
</svg>
